HIERARCHY
ROOT Hips
{
	OFFSET 0.000000 0.000000 0.000000
	CHANNELS 6 Xposition Yposition Zposition Zrotation Yrotation Xrotation 
	JOINT Chest
	{
		OFFSET 0.000000 1.323760 0.000000
		CHANNELS 3 Zrotation Yrotation Xrotation
		JOINT Chest2
		{
			OFFSET 0.000000 1.323760 0.000000
			CHANNELS 3 Zrotation Yrotation Xrotation
			JOINT Chest3
			{
				OFFSET 0.000000 1.285570 0.000000
				CHANNELS 3 Zrotation Yrotation Xrotation
				JOINT Neck
				{
					OFFSET 0.000000 1.285570 0.000000
					CHANNELS 3 Zrotation Yrotation Xrotation
					JOINT Head
					{
						OFFSET 0.000000 0.851060 0.000000
						CHANNELS 3 Zrotation Yrotation Xrotation
						End Site
						{
							OFFSET 0.000000 0.000000 0.000000
						}
					}
				}
				JOINT RightCollar
				{
					OFFSET -0.200000 1.285570 0.000000
					CHANNELS 3 Zrotation Yrotation Xrotation
					JOINT RightShoulder
					{
						OFFSET -1.439230 0.000000 0.000000
						CHANNELS 3 Zrotation Yrotation Xrotation
						JOINT RightElbow
						{
							OFFSET 0.000000 -3.065320 0.000000
							CHANNELS 3 Zrotation Yrotation Xrotation
							JOINT RightWrist
							{
								OFFSET 0.000000 -2.183900 0.000000
								CHANNELS 3 Zrotation Yrotation Xrotation
								JOINT RightFinger0
								{
									OFFSET 0.000000 -0.752930 0.000000
									CHANNELS 3 Zrotation Yrotation Xrotation
									End Site
									{
										OFFSET 0.000000 0.000000 0.000000
									}
								}
							}
						}
					}
				}
				JOINT LeftCollar
				{
					OFFSET 0.200000 1.285570 0.000000
					CHANNELS 3 Zrotation Yrotation Xrotation
					JOINT LeftShoulder
					{
						OFFSET 1.439230 0.000000 0.000000
						CHANNELS 3 Zrotation Yrotation Xrotation
						JOINT LeftElbow
						{
							OFFSET 0.000000 -3.065320 0.000000
							CHANNELS 3 Zrotation Yrotation Xrotation
							JOINT LeftWrist
							{
								OFFSET 0.000000 -2.183900 0.000000
								CHANNELS 3 Zrotation Yrotation Xrotation
								JOINT LeftFinger0
								{
									OFFSET 0.000000 -0.752930 0.000000
									CHANNELS 3 Zrotation Yrotation Xrotation
									End Site
									{
										OFFSET 0.000000 0.000000 0.000000
									}
								}
							}
						}
					}
				}
			}
		}
	}
	JOINT RightHip
	{
		OFFSET -0.926530 0.000000 0.000000
		CHANNELS 3 Zrotation Yrotation Xrotation
		JOINT RightKnee
		{
			OFFSET 0.000000 -4.205550 0.000000
			CHANNELS 3 Zrotation Yrotation Xrotation
			JOINT RightAnkle
			{
				OFFSET 0.000000 -3.959220 0.000000
				CHANNELS 3 Zrotation Yrotation Xrotation
				JOINT RightToe
				{
					OFFSET 0.021930 -0.909920 1.062280
					CHANNELS 3 Zrotation Yrotation Xrotation
					End Site
					{
						OFFSET 0.000000 0.000000 0.000000
					}
				}
			}
		}
	}
	JOINT LeftHip
	{
		OFFSET 0.926530 0.000000 0.000000
		CHANNELS 3 Zrotation Yrotation Xrotation
		JOINT LeftKnee
		{
			OFFSET 0.000000 -4.205550 0.000000
			CHANNELS 3 Zrotation Yrotation Xrotation
			JOINT LeftAnkle
			{
				OFFSET 0.000000 -3.959220 0.000000
				CHANNELS 3 Zrotation Yrotation Xrotation
				JOINT LeftToe
				{
					OFFSET 0.021930 -0.909920 1.062280
					CHANNELS 3 Zrotation Yrotation Xrotation
					End Site
					{
						OFFSET 0.000000 0.000000 0.000000
					}
				}
			}
		}
	}
}
MOTION
Frames: 8
Frame Time: 0.008333
-0.503080 9.305470 6.447020 1.711148 7.012502 -8.910517 -4.943695 -2.430099 21.692255 0.000000 0.000000 1.499438 0.000000 0.000000 0.000000 0.000000 0.000000 0.000000 4.359886 -11.153363 -7.829018 11.650894 -4.666312 -0.000565 -21.790745 21.500669 10.429503 -0.000151 -0.000172 -100.262569 -13.864191 23.069356 -10.006904 0.000000 0.000000 0.000000 -15.115600 4.237564 0.004585 35.400466 -25.153843 11.655815 0.000072 0.000013 -110.705816 5.653472 -16.447616 -1.302073 0.000000 0.000000 0.000000 -4.717900 -9.577820 -19.812124 -0.000000 -0.000003 94.621826 0.243650 -6.942068 -6.497985 -0.043084 -0.053736 1.882110 -5.823290 2.213589 -8.232858 0.000000 0.000000 41.558713 6.142644 -2.913765 -24.305968 0.000000 0.000000 0.000000 
-0.511150 9.297300 6.566260 1.874569 7.267457 -8.824708 -5.353661 -2.625972 21.663012 0.000000 0.000000 1.658051 0.000000 0.000000 0.000000 0.000000 0.000000 0.000000 4.860124 -11.324697 -7.866036 11.988737 -4.763446 -0.000727 -21.092022 20.465812 11.410776 -0.000151 -0.000171 -99.375657 -14.203114 22.179199 -8.982855 0.000000 0.000000 0.000000 -14.783468 3.716521 0.003737 35.682150 -25.153587 9.919537 -0.000002 0.000013 -110.934381 5.431883 -16.795637 -1.460374 0.000000 0.000000 0.000000 -4.827015 -9.711783 -21.379727 -0.000000 -0.000004 95.588045 -0.121068 -7.144806 -6.840045 -0.041927 -0.050472 1.602945 -5.857524 1.939943 -7.474726 0.000000 0.000000 41.537886 6.020357 -2.889666 -25.082128 0.000000 0.000000 0.000000 
-0.517930 9.292240 6.687860 1.791439 7.561118 -8.821822 -5.453042 -2.997052 21.649043 0.000000 0.000000 1.830801 0.000000 0.000000 0.000000 0.000000 0.000000 0.000000 5.042267 -11.408641 -7.821727 12.068584 -4.922885 -0.000779 -20.317450 19.617044 12.390312 -0.000150 -0.000169 -98.721634 -14.578212 20.720511 -7.993582 0.000000 0.000000 0.000000 -14.308334 3.120183 0.002423 35.584959 -24.985389 8.465703 -0.000003 0.000013 -111.313100 5.200808 -17.469814 -1.563819 0.000000 0.000000 0.000000 -4.710383 -9.899668 -22.742265 -0.000000 -0.000004 96.161255 -0.402267 -7.208451 -7.246037 -0.041004 -0.049610 1.586554 -5.669909 1.563753 -6.630764 0.000000 0.000000 41.486903 5.893056 -2.834068 -25.852973 0.000000 0.000000 0.000000 
-0.523160 9.286790 6.802200 2.075220 7.826684 -8.212420 -5.999258 -3.477021 21.036767 0.000000 0.000000 2.040307 0.000000 0.000000 0.000000 0.000000 0.000000 0.000000 5.427147 -11.122293 -7.924577 12.376872 -5.129961 -0.000939 -19.952352 19.090329 13.304037 -0.000151 -0.000169 -98.401731 -15.001493 18.998239 -7.159202 0.000000 0.000000 0.000000 -13.838684 2.803365 0.001062 35.622105 -24.817027 6.976146 0.000071 0.000014 -111.834085 4.904106 -17.847632 -1.726591 0.000000 0.000000 0.000000 -4.847525 -10.035314 -24.691956 0.000000 0.000004 96.543056 -0.574974 -7.152013 -7.685323 -0.040001 -0.047816 1.468947 -5.885164 1.130041 -6.280548 0.000000 0.000000 41.189200 5.737722 -2.711518 -26.440479 0.000000 0.000000 0.000000 
-0.529510 9.288620 6.923310 1.925973 8.167573 -8.198876 -6.053210 -4.036134 21.112758 0.000000 0.000000 2.098647 0.000000 0.000000 0.000000 0.000000 0.000000 0.000000 5.582087 -10.784201 -7.980925 12.496203 -5.496031 -0.001016 -19.604557 18.690657 14.148869 -0.000151 -0.000169 -98.331307 -15.069729 17.404989 -6.476361 0.000000 0.000000 0.000000 -13.202108 2.206374 -0.000877 35.180920 -24.489955 5.870718 0.000071 0.000014 -112.377754 4.794734 -18.291138 -2.062739 0.000000 0.000000 0.000000 -4.659290 -10.277279 -25.816390 -0.000074 0.000004 96.378012 -0.714803 -6.971012 -8.069511 -0.038889 -0.044610 1.198824 -5.658553 0.628731 -5.318681 0.000000 0.000000 40.833164 5.578626 -2.611364 -27.036078 0.000000 0.000000 0.000000 
-0.537880 9.294140 7.041030 1.788134 8.410949 -8.052636 -6.230574 -4.777182 21.222468 0.000000 0.000000 1.992074 0.000000 0.000000 0.000000 0.000000 0.000000 0.000000 5.826063 -9.994685 -8.169486 12.712320 -5.635887 -0.001142 -19.498918 18.441014 15.022938 -0.000151 -0.000169 -98.588260 -14.819117 15.977230 -5.804415 0.000000 0.000000 0.000000 -12.586478 2.090347 -0.002837 34.932106 -24.309135 4.611249 -0.000003 0.000014 -112.988870 4.715640 -18.482407 -2.201926 0.000000 0.000000 0.000000 -4.377982 -10.327617 -27.026572 -0.000000 -0.000004 95.935627 -0.633546 -6.751424 -8.639478 -0.038203 -0.046544 1.486239 -5.408384 0.255912 -4.429489 0.000000 0.000000 40.295534 5.421385 -2.572737 -27.525779 0.000000 0.000000 0.000000 
-0.540380 9.303630 7.160910 1.659768 8.788405 -7.941948 -6.318245 -5.613527 21.312411 0.000000 0.000000 1.923671 0.000000 0.000000 0.000000 0.000000 0.000000 0.000000 5.863542 -9.276426 -8.315096 12.695376 -6.155422 -0.001158 -19.375679 18.576743 15.602577 -0.000150 -0.000170 -98.791986 -14.624368 15.004806 -5.496884 0.000000 0.000000 0.000000 -12.118526 1.624653 -0.004404 34.561704 -23.913326 3.849972 0.000003 -0.000015 -113.733455 4.814755 -18.314187 -2.343039 0.000000 0.000000 0.000000 -4.220414 -10.587152 -27.972402 -0.000074 0.000003 95.085528 -0.546755 -6.355249 -9.144660 -0.037162 -0.044147 1.304509 -5.276541 -0.427425 -3.383047 0.000000 0.000000 39.526182 5.223611 -2.345923 -27.876622 0.000000 0.000000 0.000000 
-0.550120 9.335840 7.274320 1.239613 9.234485 -7.233316 -6.162068 -6.883671 20.858454 0.000000 0.000000 1.748815 0.000000 0.000000 0.000000 0.000000 0.000000 0.000000 5.947880 -8.219631 -8.521675 12.866103 -6.275185 -0.001268 -19.537870 18.595873 16.335388 -0.000150 -0.000170 -99.246107 -13.987534 14.599392 -5.299978 0.000000 0.000000 0.000000 -11.790603 1.695129 -0.005574 34.511568 -23.755833 2.881360 0.000003 -0.000015 -114.440126 4.941306 -17.875908 -2.331476 0.000000 0.000000 0.000000 -3.539139 -10.912925 -29.511173 -0.000000 -0.000002 93.855035 -0.384343 -6.014924 -9.566460 -0.036301 -0.043938 1.359868 -4.783469 -1.112887 -3.260438 0.000000 0.000000 38.932940 5.065885 -2.295245 -27.096549 -0.010932 -0.000099 -1.036684 
